<?xml version="1.0" encoding="UTF-8" standalone="no"?>
<svg
   xmlns:dc="http://purl.org/dc/elements/1.1/"
   xmlns:cc="http://creativecommons.org/ns#"
   xmlns:rdf="http://www.w3.org/1999/02/22-rdf-syntax-ns#"
   xmlns:svg="http://www.w3.org/2000/svg"
   xmlns="http://www.w3.org/2000/svg"
   xmlns:sodipodi="http://sodipodi.sourceforge.net/DTD/sodipodi-0.dtd"
   xmlns:inkscape="http://www.inkscape.org/namespaces/inkscape"
   width="222.35449mm"
   height="251.7869mm"
   viewBox="0 0 222.35449 251.7869"
   version="1.1"
   id="svg8"
   inkscape:version="1.0.1 (3bc2e813f5, 2020-09-07)"
   sodipodi:docname="inspiration.svg">
  <defs
     id="defs2" />
  <sodipodi:namedview
     id="base"
     pagecolor="#ffffff"
     bordercolor="#666666"
     borderopacity="1.0"
     inkscape:pageopacity="0.0"
     inkscape:pageshadow="2"
     inkscape:zoom="0.35"
     inkscape:cx="779.92984"
     inkscape:cy="532.84682"
     inkscape:document-units="mm"
     inkscape:current-layer="layer1"
     inkscape:document-rotation="0"
     showgrid="false"
     inkscape:window-width="1267"
     inkscape:window-height="730"
     inkscape:window-x="25"
     inkscape:window-y="0"
     inkscape:window-maximized="0" />
  <metadata
     id="metadata5">
    <rdf:RDF>
      <cc:Work
         rdf:about="">
        <dc:format>image/svg+xml</dc:format>
        <dc:type
           rdf:resource="http://purl.org/dc/dcmitype/StillImage" />
        <dc:title></dc:title>
      </cc:Work>
    </rdf:RDF>
  </metadata>
  <g
     inkscape:label="Layer 1"
     inkscape:groupmode="layer"
     id="layer1"
     transform="translate(246.04394,6.7310092)">
    <path
       style="fill:#ffffff;stroke-width:1.9395"
       d="m -147.1897,240.01983 c -2.21088,-2.81067 -4.01978,-6.73816 -4.01978,-8.72776 0,-1.9896 -1.2422,-3.61744 -2.76044,-3.61744 -1.51825,0 -5.31462,-2.14918 -8.43638,-4.77599 -5.33966,-4.49303 -5.75491,-5.8996 -7.0091,-23.74193 -1.52006,-21.62455 -5.83262,-33.12221 -17.67487,-47.12268 -9.92353,-11.73205 -16.22305,-26.00997 -17.69678,-40.10984 -0.96769,-9.25837 -0.63326,-11.87825 1.62698,-12.745592 4.8594,-1.86473 6.7189,1.062202 7.85446,12.363272 1.2601,12.54047 6.63473,24.10806 17.0023,36.59328 9.13128,10.99641 13.54837,19.67972 16.28905,32.02167 1.71972,7.74435 3.02466,9.82234 6.47911,10.31728 4.29896,0.61595 4.32567,0.45126 4.32567,-26.66816 v -27.28792 h -4.54815 c -9.78619,0 -14.91876,-15.21832 -7.42102,-22.00368 7.75413,-7.01739 21.66669,-1.81945 21.66669,8.095 0,3.51976 1.11452,4.21116 6.78826,4.21116 5.82816,0 6.78826,-0.64326 6.78826,-4.54815 0,-13.70275 20.99218,-14.72989 24.24725,-1.18641 1.45094,6.03696 -4.82033,14.88125 -11.19426,15.78712 -4.23003,0.60118 -4.32523,1.19104 -4.32523,26.79799 v 26.18328 h 4.69538 c 4.13119,0 5.00069,-1.34431 7.23623,-11.18761 2.37998,-10.47933 6.20715,-17.27829 22.917766,-40.7134 12.0192,-16.85584 13.54693,-40.663322 3.83877,-59.821464 -18.44197,-36.393476 -65.094016,-44.89678 -96.248016,-17.543203 -7.8422,6.885544 -10.34307,7.499887 -12.08212,2.967996 -1.71545,-4.470408 10.75823,-15.631003 25.0007,-22.368914 10.1349,-4.794674 13.96555,-5.520785 29.12527,-5.520785 15.17402,0 18.97652,0.72229 29.09253,5.526175 42.006826,19.94817 54.035956,72.442625 24.819766,108.312215 -14.37168,17.64455 -18.19439,27.201 -19.476396,48.6893 -1.02421,17.16723 -1.57609,19.22283 -6.47643,24.12318 -2.94625,2.94624 -6.73311,5.35681 -8.41526,5.35681 -1.7881,0 -3.05844,1.64778 -3.05844,3.96715 0,12.32246 -21.05618,18.41567 -28.95177,8.37805 z m 15.50276,-4.65542 c 6.31343,-3.37885 4.61101,-7.68978 -3.03676,-7.68978 -7.04401,0 -8.84893,2.98204 -4.46086,7.37011 2.82183,2.82182 2.82225,2.82184 7.49762,0.31967 z m 19.22311,-20.24306 c 1.30354,-1.57064 2.50138,-5.71633 2.66186,-9.21263 l 0.2918,-6.35688 -25.69841,-0.54118 -25.69841,-0.54116 v 5.44326 c 0,2.99377 1.35865,7.383 3.01923,9.75379 2.78836,3.98095 4.54988,4.31057 23.03655,4.31057 15.2604,0 20.58054,-0.67864 22.38738,-2.85577 z m -16.44137,-51.4503 v -26.18328 l -6.30338,-0.60776 -6.30338,-0.60776 v 25.98291 c 0,14.29061 0.62192,26.60485 1.38204,27.36496 0.76013,0.76013 3.59665,1.12378 6.30338,0.80813 l 4.92134,-0.57392 z m -22.30428,-39.7598 c 0,-1.60009 -1.30916,-2.90925 -2.90925,-2.90925 -1.60009,0 -2.90925,1.30916 -2.90925,2.90925 0,1.60009 1.30916,2.90925 2.90925,2.90925 1.60009,0 2.90925,-1.30916 2.90925,-2.90925 z m 38.79005,-0.1422 c 0,-1.80614 -1.31957,-2.79555 -3.23341,-2.42438 -4.86576,0.94366 -5.53387,5.47583 -0.80721,5.47583 2.38236,0 4.04062,-1.25231 4.04062,-3.05146 z m -133.13855,-17.35049 c -1.98802,-5.18069 2.01217,-6.993242 14.06135,-6.37144 9.94512,0.51322 11.43482,1.09545 11.43482,4.46911 0,3.40456 -1.4857,3.94971 -12.147,4.45708 -9.74973,0.46399 -12.38425,-0.0402 -13.34917,-2.55475 z m 151.448796,0.8208 c -0.72254,-1.16909 -0.11947,-3.31947 1.34016,-4.77861 3.36458,-3.363482 8.52984,-0.50964 6.87637,3.79923 -1.3631,3.55217 -6.26533,4.13649 -8.21653,0.97938 z m 44.10381,-2.23826 c 0.54652,-3.84812 1.90116,-4.43153 11.46178,-4.93629 7.82043,-0.412892 11.51549,0.23909 13.25862,2.33942 4.1066,4.94817 0.43086,6.96075 -12.71298,6.96075 -11.9855,0 -12.59569,-0.22176 -12.00742,-4.36388 z m -49.58433,-18.425272 c -5.821926,-11.146102 -17.386166,-19.204527 -30.860376,-21.50475 -6.35106,-1.084209 -8.15263,-2.237078 -8.15263,-5.217087 0,-3.295655 1.23677,-3.785177 8.93204,-3.535363 4.91261,0.159485 11.89482,1.784547 15.51601,3.611262 17.016346,8.583912 32.511276,31.979568 21.180056,31.979568 -2.20893,0 -5.00801,-2.25684 -6.6151,-5.33363 z m -99.455986,-5.464 c -0.64153,-1.671793 -0.21474,-3.991298 0.94842,-5.154459 2.80035,-2.800342 8.28414,1.572568 6.8052,5.426629 -1.41879,3.69731 -6.29608,3.5261 -7.75362,-0.27217 z m -7.98556,-42.106865 c -8.7605,-8.926303 -9.91334,-11.959123 -5.22918,-13.756603 4.27724,-1.641331 18.72782,11.914927 17.99119,16.877757 -0.95542,6.436989 -4.14759,5.656293 -12.76201,-3.121154 z m 130.113806,5.098909 c -0.84961,-2.214048 1.60328,-5.870996 7.97773,-11.893771 8.50651,-8.037209 9.4442,-8.457092 12.36461,-5.536678 2.92042,2.920413 2.51003,3.822394 -5.41143,11.893771 -9.11379,9.286283 -12.94665,10.707582 -14.93091,5.536678 z M -137.14808,20.695574 c -3.88277,-1.394879 -3.27537,-25.5564194 0.68062,-27.0744764 4.4538,-1.709084 6.52878,2.770249 6.56281,14.1674 0.0297,9.9545384 -2.56953,14.5861674 -7.24343,12.9070764 z"
       id="path863" />
  </g>
</svg>
