<?xml version="1.0" encoding="UTF-8" standalone="no"?>
<svg
   xmlns:dc="http://purl.org/dc/elements/1.1/"
   xmlns:cc="http://creativecommons.org/ns#"
   xmlns:rdf="http://www.w3.org/1999/02/22-rdf-syntax-ns#"
   xmlns:svg="http://www.w3.org/2000/svg"
   xmlns="http://www.w3.org/2000/svg"
   xmlns:sodipodi="http://sodipodi.sourceforge.net/DTD/sodipodi-0.dtd"
   xmlns:inkscape="http://www.inkscape.org/namespaces/inkscape"
   width="220.60255mm"
   height="220.71855mm"
   viewBox="0 0 220.60255 220.71856"
   version="1.1"
   id="svg8"
   inkscape:version="1.0.1 (3bc2e813f5, 2020-09-07)"
   sodipodi:docname="new.svg">
  <defs
     id="defs2" />
  <sodipodi:namedview
     id="base"
     pagecolor="#ffffff"
     bordercolor="#666666"
     borderopacity="1.0"
     inkscape:pageopacity="0.0"
     inkscape:pageshadow="2"
     inkscape:zoom="0.35"
     inkscape:cx="740.88295"
     inkscape:cy="520.97617"
     inkscape:document-units="mm"
     inkscape:current-layer="layer1"
     inkscape:document-rotation="0"
     showgrid="false"
     inkscape:window-width="1267"
     inkscape:window-height="730"
     inkscape:window-x="25"
     inkscape:window-y="0"
     inkscape:window-maximized="0" />
  <metadata
     id="metadata5">
    <rdf:RDF>
      <cc:Work
         rdf:about="">
        <dc:format>image/svg+xml</dc:format>
        <dc:type
           rdf:resource="http://purl.org/dc/dcmitype/StillImage" />
        <dc:title></dc:title>
      </cc:Work>
    </rdf:RDF>
  </metadata>
  <g
     inkscape:label="Layer 1"
     inkscape:groupmode="layer"
     id="layer1"
     transform="translate(247.05207,3.5902314)">
    <path
       style="fill:#ffffff;stroke-width:1.70071"
       d="m -147.3289,211.60102 c -2.61534,-3.04001 -6.54466,-7.69939 -8.7318,-10.35414 l -3.97666,-4.82686 -10.10414,3.55133 c -11.66068,4.0984 -21.70194,4.58623 -24.51952,1.19124 -1.07728,-1.29803 -2.79134,-6.84659 -3.80904,-12.33013 -3.10448,-16.72759 -3.35323,-17.04392 -14.49697,-18.43624 -19.78167,-2.47157 -23.79089,-8.00335 -17.76945,-24.51772 5.17985,-14.20623 4.81175,-16.01035 -4.68974,-22.98508 -9.72814,-7.14112 -13.52583,-14.41338 -10.73061,-20.54824 1.02341,-2.24615 5.72245,-6.966936 10.44231,-10.49064 9.78344,-7.304014 10.31911,-9.650123 5.18015,-22.687759 -4.40341,-11.17156 -4.287,-14.575388 0.66797,-19.530353 3.01155,-3.011555 6.79812,-4.3781 14.56672,-5.257017 5.77354,-0.653203 11.49101,-2.181303 12.70548,-3.39578 1.21448,-1.214475 2.74258,-6.931949 3.39578,-12.705495 0.87892,-7.768603 2.24547,-11.555178 5.25702,-14.566733 4.94357,-4.9435758 6.74452,-5.0065958 19.0887,-0.667963 5.3227,1.870778 10.98429,3.401415 12.58131,3.401415 1.59703,0 6.47389,-4.178975 10.83747,-9.2866099 4.36359,-5.1076355 9.45375,-9.7690246 11.31148,-10.3586427 5.57198,-1.7684839 12.9844,2.56043781 19.43797,11.3519825 6.97474,9.5014951 8.77886,9.8695961 22.985103,4.6897461 16.51438,-6.0214401 22.04616,-2.012223 24.51773,17.769466 1.39396,11.157043 1.68683,11.385906 18.5928,14.52981 5.56963,1.035753 11.27022,3.026788 12.66795,4.424522 3.56428,3.564266 2.88845,12.816629 -1.7544,24.018299 l -3.9576,9.548437 5.06439,4.180961 c 15.46108,12.764084 16.11899,13.568964 16.11899,19.720054 0,5.22979 -1.35651,7.23351 -10.23567,15.11924 -11.35195,10.08189 -11.0406,8.10777 -4.22777,26.8057 4.86074,13.3404 -0.091,19.04409 -18.70037,21.53998 -4.67695,0.62727 -9.37487,1.83217 -10.43982,2.67754 -1.06496,0.84539 -2.47395,5.84034 -3.13109,11.09987 -0.65714,5.25956 -2.02163,11.37755 -3.03222,13.59556 -3.11058,6.82695 -12.78763,7.32156 -28.433653,1.45331 l -7.62119,-2.85843 -9.12247,10.33133 c -7.93164,8.98272 -9.90945,10.33134 -15.15123,10.33134 -4.69244,0 -7.08275,-1.22515 -10.78391,-5.5273 z m -45.07867,-80.54037 c 2.11739,-0.81253 2.69015,-3.7093 2.69015,-13.60566 0,-6.91534 0.57399,-12.53662 1.27553,-12.49173 0.70154,0.0449 4.13998,4.06281 7.64098,8.92871 11.77116,16.3603 13.8682,18.48763 17.02882,17.27479 2.61791,-1.00459 2.96668,-3.8225 2.96668,-23.96939 0,-18.810737 -0.45302,-23.004818 -2.57272,-23.81822 -5.27316,-2.023502 -7.63152,2.679575 -7.63152,15.218875 v 12.007685 l -10.38182,-13.916636 c -10.43529,-13.988285 -12.7266,-15.638519 -16.48934,-11.875786 -2.82132,2.821328 -2.82132,42.417492 0,45.238822 2.38497,2.38496 2.0481,2.32289 5.47324,1.00854 z m 68.99972,-1.4971 c 3.95239,-4.76234 0.7525,-7.67484 -8.43218,-7.67484 -8.37386,0 -8.5569,-0.10914 -8.5569,-5.10212 0,-4.99298 0.18304,-5.10212 8.5569,-5.10212 6.37166,0 8.83101,-0.71429 9.63021,-2.797 1.5184,-3.95687 -3.93593,-7.40725 -11.70935,-7.40725 -5.77581,0 -6.47776,-0.46073 -6.47776,-4.251768 0,-3.971854 0.56334,-4.251769 8.5569,-4.251769 9.22944,0 12.38223,-2.915315 8.37479,-7.743987 -1.64403,-1.980955 -5.02394,-2.481063 -14.22109,-2.104225 l -12.06449,0.494322 -0.47658,22.827417 c -0.35744,17.12067 0.0677,23.17281 1.70071,24.20903 3.9318,2.49498 22.82274,1.67095 25.11884,-1.09569 z m 28.725473,0.2248 c 1.05195,-1.26753 2.97671,-5.28545 4.27723,-8.92871 2.03963,-5.71379 2.54107,-6.15667 3.6488,-3.2227 5.75728,15.24884 6.21587,15.81244 10.60156,13.02908 1.8352,-1.1647 12.13396,-38.057256 12.25073,-43.885032 0.0582,-2.903512 -5.16114,-4.343714 -7.80123,-2.152641 -1.26882,1.053025 -3.23824,6.423457 -4.37649,11.934293 -2.28805,11.0777 -3.95872,12.57583 -5.61494,5.0351 -1.28098,-5.832254 -4.93832,-9.384045 -8.32478,-8.084538 -1.31439,0.504379 -3.51911,4.225263 -4.89937,8.268638 l -2.50955,7.35157 -2.14036,-10.598715 c -2.491573,-12.337849 -5.141173,-16.767334 -9.117153,-15.241609 -3.84016,1.473608 -3.53182,6.633483 1.61632,27.047714 5.3602,21.25515 7.761183,25.024 12.389233,19.44755 z"
       id="path895" />
  </g>
</svg>
