<?xml version="1.0" encoding="UTF-8" standalone="no"?>
<svg
   xmlns:dc="http://purl.org/dc/elements/1.1/"
   xmlns:cc="http://creativecommons.org/ns#"
   xmlns:rdf="http://www.w3.org/1999/02/22-rdf-syntax-ns#"
   xmlns:svg="http://www.w3.org/2000/svg"
   xmlns="http://www.w3.org/2000/svg"
   xmlns:sodipodi="http://sodipodi.sourceforge.net/DTD/sodipodi-0.dtd"
   xmlns:inkscape="http://www.inkscape.org/namespaces/inkscape"
   width="219.00128mm"
   height="219.02515mm"
   viewBox="0 0 219.00128 219.02515"
   version="1.1"
   id="svg8"
   inkscape:version="1.0.1 (3bc2e813f5, 2020-09-07)"
   sodipodi:docname="profile.svg">
  <defs
     id="defs2" />
  <sodipodi:namedview
     id="base"
     pagecolor="#ffffff"
     bordercolor="#666666"
     borderopacity="1.0"
     inkscape:pageopacity="0.0"
     inkscape:pageshadow="2"
     inkscape:zoom="0.35"
     inkscape:cx="737.80877"
     inkscape:cy="517.90233"
     inkscape:document-units="mm"
     inkscape:current-layer="layer1"
     inkscape:document-rotation="0"
     showgrid="false"
     inkscape:window-width="1267"
     inkscape:window-height="730"
     inkscape:window-x="25"
     inkscape:window-y="0"
     inkscape:window-maximized="0" />
  <metadata
     id="metadata5">
    <rdf:RDF>
      <cc:Work
         rdf:about="">
        <dc:format>image/svg+xml</dc:format>
        <dc:type
           rdf:resource="http://purl.org/dc/dcmitype/StillImage" />
        <dc:title></dc:title>
      </cc:Work>
    </rdf:RDF>
  </metadata>
  <g
     inkscape:label="Layer 1"
     inkscape:groupmode="layer"
     id="layer1"
     transform="translate(246.23869,2.7769452)">
    <path
       style="fill:#000000;stroke-width:1.76862"
       d="m -164.7811,213.63957 c -38.56357,-10.371 -68.82672,-40.99388 -78.76417,-79.70042 -3.59764,-14.01286 -3.59004,-40.350755 0.0157,-54.316596 9.86736,-38.218849 41.47151,-69.8230098 79.69033,-79.69039445 13.96583,-3.60571695 40.30372,-3.61331825 54.31657,-0.01567638 34.395201,8.83057743 62.530056,33.75834383 75.699387,67.07045083 4.827536,12.21135 5.703813,16.94049 6.398953,34.533676 0.948299,24.00049 -1.540877,36.32648 -11.412086,56.51097 -12.605377,25.77524 -41.066355,48.32037 -70.360394,55.73539 -13.28484,3.36272 -42.85867,3.29493 -55.58428,-0.12734 z m 53.38571,-10.44972 c 17.012948,-4.43131 31.200093,-12.78207 44.770709,-26.35269 20.051108,-20.05109 28.986351,-41.54598 28.986351,-69.73045 0,-28.457718 -8.904221,-49.957653 -29.128457,-70.332908 -38.841733,-39.1317981 -100.694333,-39.104803 -139.860153,0.06104 -39.2068,39.20683 -39.24729,101.138378 -0.0914,139.836678 20.61282,20.37194 40.71589,28.8013 69.22365,29.02596 8.88627,0.07 20.47945,-1.04384 26.09931,-2.50763 z m -85.03589,-37.10695 c 1.14319,-17.81337 8.21657,-32.16504 22.62774,-45.91098 l 10.71199,-10.21751 -4.73401,-4.68186 c -20.24939,-20.026332 -12.01754,-57.414084 15.14696,-68.795169 4.05974,-1.700899 10.40241,-2.343188 18.90119,-1.914018 10.77225,0.543974 13.98722,1.486609 20.36977,5.972428 12.62095,8.870332 18.06311,18.306255 18.878234,32.732124 0.601634,10.647398 0.04502,13.649403 -4.10263,22.126907 -2.639284,5.394518 -6.277074,10.731468 -8.083974,11.859888 -3.01313,1.88174 -2.36086,3.00924 7.874285,13.6114 15.493396,16.04895 20.32404,26.34026 23.067203,49.14285 l 1.117029,9.28525 h -61.310847 -61.31079 z m 113.091305,-0.85597 c -0.961627,-12.58593 -6.654524,-25.11677 -16.355821,-36.00138 -11.892094,-13.34263 -12.918104,-13.78056 -25.048004,-10.6912 -9.684,2.46643 -22.11504,1.69217 -31.511,-1.96264 -3.71976,-1.4469 -17.3626,10.70092 -24.48743,21.80401 -5.28868,8.24171 -11.69996,30.90179 -9.67167,34.18364 0.50325,0.81427 24.93617,1.26994 54.29537,1.01259 l 53.380399,-0.4679 z m -38.662065,-55.99506 c 13.99953,-7.06097 21.18786,-17.991459 21.39381,-32.531167 0.3938,-27.801074 -30.15917,-45.379317 -54.29229,-31.236351 -24.60742,14.420912 -23.42238,49.597898 2.12572,63.101108 7.9787,4.21707 23.08443,4.54419 30.77276,0.66641 z"
       id="path911" />
  </g>
</svg>
