<?xml version="1.0" encoding="UTF-8" standalone="no"?>
<svg
   xmlns:dc="http://purl.org/dc/elements/1.1/"
   xmlns:cc="http://creativecommons.org/ns#"
   xmlns:rdf="http://www.w3.org/1999/02/22-rdf-syntax-ns#"
   xmlns:svg="http://www.w3.org/2000/svg"
   xmlns="http://www.w3.org/2000/svg"
   xmlns:sodipodi="http://sodipodi.sourceforge.net/DTD/sodipodi-0.dtd"
   xmlns:inkscape="http://www.inkscape.org/namespaces/inkscape"
   width="222.67809mm"
   height="222.66441mm"
   viewBox="0 0 222.67808 222.66442"
   version="1.1"
   id="svg8"
   inkscape:version="1.0.1 (3bc2e813f5, 2020-09-07)"
   sodipodi:docname="tools.svg">
  <defs
     id="defs2" />
  <sodipodi:namedview
     id="base"
     pagecolor="#ffffff"
     bordercolor="#666666"
     borderopacity="1.0"
     inkscape:pageopacity="0.0"
     inkscape:pageshadow="2"
     inkscape:zoom="0.35"
     inkscape:cx="736.9214"
     inkscape:cy="521.43306"
     inkscape:document-units="mm"
     inkscape:current-layer="layer1"
     inkscape:document-rotation="0"
     showgrid="false"
     inkscape:window-width="1267"
     inkscape:window-height="730"
     inkscape:window-x="25"
     inkscape:window-y="0"
     inkscape:window-maximized="0" />
  <metadata
     id="metadata5">
    <rdf:RDF>
      <cc:Work
         rdf:about="">
        <dc:format>image/svg+xml</dc:format>
        <dc:type
           rdf:resource="http://purl.org/dc/dcmitype/StillImage" />
        <dc:title></dc:title>
      </cc:Work>
    </rdf:RDF>
  </metadata>
  <g
     inkscape:label="Layer 1"
     inkscape:groupmode="layer"
     id="layer1"
     transform="translate(246.00391,3.711118)">
    <path
       style="fill:#000000;stroke-width:1.70952"
       d="m -219.08767,215.81645 c -8.71858,-3.98241 -20.25859,-16.50721 -23.17469,-25.15236 -5.84828,-17.33793 -1.1428,-35.52498 12.32388,-47.63268 9.39004,-8.44247 16.64088,-11.17778 29.66886,-11.19229 l 8.56094,-0.009 40.58767,-40.614113 40.58768,-40.61412 v -8.336161 c 0,-13.332642 3.36099,-21.543998 12.785498,-31.236763 10.165673,-10.45502349 23.353322,-15.3721431 36.100953,-13.4605187 10.448849,1.56690109 9.819515,4.7298948 -3.584248,18.0145137 -6.111514,6.057202 -11.11186,12.099988 -11.11186,13.428417 0,1.328426 0.906369,5.44052 2.014152,9.137986 2.164766,7.22529 6.673241,10.548676 16.849621,12.420546 5.589765,1.028194 6.589132,0.417297 17.701231,-10.820418 6.881566,-6.959354 12.744082,-11.539028 14.103523,-11.017365 3.143952,1.206451 3.126971,22.65426 -0.02394,30.195381 -3.392137,8.118467 -12.490652,17.850762 -20.515929,21.944949 -4.008209,2.044839 -11.674002,3.893383 -18.111785,4.367508 -10.841147,0.798426 -11.444418,1.097218 -20.978074,10.390201 l -9.81594,9.568127 5.100783,5.26268 c 4.86175,5.01604 4.971523,5.44721 2.342593,9.20054 -2.521472,3.59991 -2.52484,4.17123 -0.03927,6.65685 2.48561,2.4856 3.023303,2.44354 6.264937,-0.49011 3.523137,-3.18838 3.705911,-3.05003 28.377303,21.48323 13.657254,13.58076 25.932591,26.76961 27.278562,29.30857 3.27425,6.17636 3.103015,20.83729 -0.327834,28.06723 -4.237501,8.92989 -11.562899,13.24471 -23.809801,14.02455 -7.24694,0.46144 -12.025936,-0.14492 -15.458405,-1.9614 -2.732655,-1.44616 -16.079999,-13.80346 -29.660753,-27.46069 -24.533227,-24.67142 -24.671607,-24.85418 -21.483217,-28.37732 3.00228,-3.31748 3.02446,-3.73059 0.3439,-6.41114 -2.2379,-2.23788 -3.31699,-2.41338 -4.92882,-0.80155 -3.22547,3.22549 -7.26146,2.44731 -11.67538,-2.2511 l -4.05347,-4.31472 -9.92065,9.81714 c -9.70077,9.59956 -9.92104,10.02674 -9.93736,19.273 -0.0311,17.6594 -13.50843,36.79421 -28.93338,41.0792 -9.74756,2.70783 -25.82975,1.99321 -33.4473,-1.48628 z m 27.03713,-3.5256 c 16.94622,-3.93336 28.52219,-19.55854 28.52219,-38.49919 v -10.36165 l 42.63945,-42.61388 42.639475,-42.613878 9.410876,0.43593 c 11.855388,0.549166 22.086894,-3.753941 29.792093,-12.529773 6.576779,-7.490631 8.86043,-12.707184 8.86043,-20.239827 V 40.477454 L -40.321469,50.507151 -50.456928,60.53685 -62.673218,56.608787 C -76.243571,52.24534 -77.807252,50.57634 -82.391841,35.562015 l -3.034219,-9.936962 9.99972,-10.105159 c 5.499846,-5.557837 9.638209,-10.4666704 9.196341,-10.9085176 -0.441837,-0.4418462 -4.244258,-0.037891 -8.449829,0.8976886 -17.739678,3.9463983 -29.015432,18.791971 -29.015432,38.201493 v 10.361649 l -42.31055,42.154722 -42.31055,42.154721 -12.82137,0.62666 c -10.68461,0.52223 -14.04885,1.44963 -20.18659,5.56474 -27.38157,18.35829 -19.72208,59.87195 12.49376,67.71484 7.12571,1.73476 9.31712,1.73513 16.78002,0.003 z m -28.05133,-25.18064 c -3.04643,-5.32459 -5.53895,-10.5673 -5.53895,-11.65051 0,-1.08319 2.61579,-6.34276 5.81287,-11.68792 l 5.81287,-9.71845 13.70413,0.0337 13.70411,0.0337 5.55593,9.50502 c 3.05576,5.22776 5.55593,10.53618 5.55593,11.79652 0,1.26035 -2.50017,6.56877 -5.55593,11.79655 l -5.55593,9.50501 -13.97805,0.0337 -13.97805,0.0337 -5.53893,-9.68107 z m 33.33957,-4.38819 4.31214,-7.23114 -4.04942,-6.87237 c -3.87064,-6.56897 -4.46855,-6.89489 -13.54368,-7.38285 -9.4676,-0.50905 -9.50684,-0.49054 -13.98082,6.59671 l -4.48658,7.10719 3.98235,7.5068 3.98235,7.50681 h 9.73578 c 9.62729,0 9.78379,-0.0806 14.04788,-7.23115 z m 11.55005,-34.31135 c -1.42205,-1.71345 7.48136,-11.54433 38.80732,-42.8499 36.14764,-36.1241 40.909181,-40.317322 42.96659,-37.838291 2.045205,2.464316 -2.334143,7.439118 -37.72086,42.849891 -22.01909,22.03405 -40.52361,40.06191 -41.12116,40.06191 -0.59755,0 -1.9169,-1.00061 -2.93189,-2.22361 z m 134.444731,61.45349 c 6.233257,-3.45891 10.557761,-11.43006 10.570241,-19.4836 0.0064,-3.99599 -0.548673,-7.26544 -1.233069,-7.26544 -1.677731,0 -27.817458,26.06648 -27.817458,27.73954 0,2.14979 14.192011,1.38914 18.480286,-0.9905 z m -9.072953,-18.20647 15.319361,-15.39068 -21.314431,-21.36572 C -76.024649,134.6636 -77.43955,133.5899 -82.635008,134.56458 c -4.452423,0.83528 -6.339963,0.17409 -10.0261,-3.51204 -3.733001,-3.73301 -4.35237,-5.54671 -3.480751,-10.19282 0.761746,-4.06047 0.297206,-6.2851 -1.64989,-7.90104 -2.349531,-1.94995 -4.782821,-0.17661 -18.285961,13.32653 -13.3829,13.38292 -15.26434,15.95104 -13.36368,18.2412 1.60913,1.93889 3.94992,2.38753 8.58768,1.64592 5.5743,-0.89137 6.85513,-0.40987 10.19112,3.83114 2.81621,3.58022 3.54842,6.1862 2.79566,9.94993 -0.94262,4.71318 0.56625,6.6892 19.927571,26.09713 11.521073,11.54879 21.359628,20.99783 21.863469,20.99783 0.503825,0 7.809768,-6.92581 16.235418,-15.39067 z m -27.055496,-21.91601 c -16.420541,-16.47161 -18.153174,-18.77052 -15.688501,-20.81604 2.431969,-2.01833 4.957223,-0.12129 20.656751,15.51764 16.404035,16.34074 19.90205,21.68087 15.222309,23.23863 -0.952285,0.31699 -10.03804,-7.75611 -20.190559,-17.94023 z M -189.78642,72.236412 c -19.67078,-19.708497 -24.93451,-24.054869 -31.54952,-26.051043 -7.393,-2.230952 -8.51552,-3.38066 -16.3038,-16.698862 l -8.36417,-14.302952 9.44735,-9.4473374 9.44732,-9.4473356 14.26788,8.1949281 c 15.96985,9.1724659 16.14092,9.3450709 17.66716,17.8258119 0.88484,4.916747 5.72008,10.743162 25.02625,30.156373 21.28641,21.404437 23.62261,24.316882 21.1511,26.368061 -2.44649,2.030392 -5.62738,-0.537654 -26.6256,-21.495688 -19.92336,-19.885235 -24.20444,-25.066389 -26.01833,-31.488612 -1.91996,-6.797823 -3.42887,-8.447569 -13.0439,-14.261387 l -10.87278,-6.5743351 -5.68181,5.7115751 -5.68181,5.711576 6.35244,10.936906 c 5.64474,9.718492 7.20945,11.188292 14.04525,13.193415 6.37273,1.869289 11.79257,6.369676 31.58411,26.225997 21.23669,21.306216 23.60636,24.254412 21.327,26.533764 -2.27935,2.279359 -5.18759,-0.06404 -26.17414,-21.090855 z"
       id="path879" />
  </g>
</svg>
